<?xml version="1.0" encoding="iso-8859-1"?>
<!-- Uploaded to: SVG Repo, www.svgrepo.com, Generator: SVG Repo Mixer Tools -->
<svg xmlns="http://www.w3.org/2000/svg" viewBox="0 0 24 24">
  <path d="M12.206 2c.385.004 2.9.115 4.05.635.397.18.774.42 1.124.742.452.413.757.861.876 1.367.366 1.525.27 4.415.257 4.987l-.005.198c-.001.063-.002.12-.002.172 0 .37.303.644.65.644.174 0 .362-.054.581-.17.332-.176.64-.264.937-.264.448 0 .809.163 1.073.483.316.386.376.91.18 1.57-.173.586-1.413 1.92-3.687 2.174-.151.366-.115 1.038-.077 1.482l.017.207c.026.321.057.691.053 1.125-.046 4.76-3.436 8.11-8.234 8.11-4.798 0-8.187-3.35-8.234-8.11-.004-.434.027-.804.053-1.125l.018-.207c.037-.444.073-1.116-.077-1.482-2.274-.254-3.514-1.588-3.687-2.174-.196-.66-.136-1.184.18-1.57.264-.32.625-.483 1.073-.483.297 0 .605.088.937.264.22.116.407.17.581.17.347 0 .65-.274.65-.644l-.001-.172-.006-.198c-.013-.572-.11-3.462.257-4.987.119-.506.424-.954.876-1.367.35-.322.727-.562 1.124-.742C9.306 3.115 11.821 3.004 12.206 3M12 5c-.386 0-2.558.104-3.344.493-.239.118-.464.273-.676.46-.246.218-.376.433-.427.644-.298 1.253-.203 4.008-.194 4.438l.005.198c.012.492.015.9-.43 1.345-.251.25-.607.389-.994.389-.34 0-.661-.104-.979-.273-.241-.127-.439-.191-.604-.191-.269 0-.388.128-.431.182-.069.083-.109.245-.025.508.078.264.909 1.228 2.695 1.428.71.079.98.98.909 1.836-.012.14-.037.411-.059.644l-.017.207c-.029.356-.055.67-.051 1.039.04 4.071 2.858 6.892 6.622 6.892 3.764 0 6.583-2.821 6.622-6.892.004-.369-.022-.683-.051-1.039l-.017-.207c-.022-.233-.047-.504-.059-.644-.071-.856.199-1.757.909-1.836 1.786-.2 2.617-1.164 2.695-1.428.084-.263.044-.425-.025-.508-.043-.054-.162-.182-.431-.182-.165 0-.363.064-.604.191-.318.169-.639.273-.979.273-.387 0-.743-.139-.994-.389-.445-.445-.442-.853-.43-1.345l.005-.198c.009-.43.104-3.185-.194-4.438-.051-.211-.181-.426-.427-.644-.212-.187-.437-.342-.676-.46C14.558 5.104 12.386 5 12 5z"/>
</svg>